<?xml version="1.0" encoding="UTF-8" standalone="no"?>
<!-- Created with Inkscape (http://www.inkscape.org/) -->

<svg
   width="210mm"
   height="297mm"
   viewBox="0 0 210 297"
   version="1.1"
   id="svg1"
   xml:space="preserve"
   inkscape:version="1.3 (0e150ed6c4, 2023-07-21)"
   sodipodi:docname="marcas hidalgo.svg"
   xmlns:inkscape="http://www.inkscape.org/namespaces/inkscape"
   xmlns:sodipodi="http://sodipodi.sourceforge.net/DTD/sodipodi-0.dtd"
   xmlns="http://www.w3.org/2000/svg"
   xmlns:svg="http://www.w3.org/2000/svg"><sodipodi:namedview
     id="namedview1"
     pagecolor="#ffffff"
     bordercolor="#000000"
     borderopacity="0.25"
     inkscape:showpageshadow="2"
     inkscape:pageopacity="0.0"
     inkscape:pagecheckerboard="0"
     inkscape:deskcolor="#d1d1d1"
     inkscape:document-units="mm"
     inkscape:zoom="0.63118804"
     inkscape:cx="1050.4001"
     inkscape:cy="358.84711"
     inkscape:window-width="1366"
     inkscape:window-height="697"
     inkscape:window-x="-8"
     inkscape:window-y="-8"
     inkscape:window-maximized="1"
     inkscape:current-layer="layer1" /><defs
     id="defs1" /><g
     inkscape:label="Layer 1"
     inkscape:groupmode="layer"
     id="layer1"><path
       id="path5-2"
       style="fill:#191919;fill-opacity:1;stroke-width:0.730222"
       d="m 264.18196,61.381707 -0.31163,0.286765 -0.31163,0.28639 -2.34712,6.489777 c -1.38494,3.829215 -2.34712,6.640063 -2.34712,6.856275 0,0.505992 0.23776,0.91861 0.64558,1.119604 0.53756,0.264922 0.73928,0.224316 3.00659,-0.605706 1.1719,-0.429012 2.17383,-0.780569 2.22642,-0.781276 0.0526,-7.08e-4 1.06076,0.353913 2.24031,0.788594 l 2.14448,0.790421 0.41697,-0.0545 0.41661,-0.0545 0.3387,-0.369422 0.3387,-0.36979 v -0.404903 c 0,-0.266727 -0.80336,-2.623317 -2.35407,-6.904555 l -2.35443,-6.500018 -0.30432,-0.28639 -0.30468,-0.286765 h -0.56986 z m 0.61375,0.4872 c 0.2049,0.0057 0.40176,0.07263 0.52963,0.209954 0.21959,0.235818 4.79585,12.906219 4.79372,13.273623 -10e-4,0.33784 -0.40002,0.721658 -0.74945,0.721658 -0.14634,0 -1.22191,-0.359817 -2.38991,-0.799197 -1.168,-0.439374 -2.17055,-0.797343 -2.22788,-0.796635 -0.0574,0.0014 -1.06278,0.361055 -2.23409,0.799197 -1.17133,0.438156 -2.26135,0.796635 -2.42246,0.796635 -0.38087,0 -0.70995,-0.336247 -0.70995,-0.72531 0,-0.169546 1.01385,-3.111797 2.25274,-6.538424 1.23891,-3.426627 2.29755,-6.357206 2.35297,-6.512455 0.0999,-0.280288 0.46319,-0.438927 0.80468,-0.429046 z m -0.0486,0.990494 c -0.16338,0.05655 -3.17016,8.442723 -3.17228,8.846041 -7.1e-4,0.253604 0.0742,0.4435 0.23482,0.594367 0.13274,0.1247 1.78434,0.79098 3.77689,1.523411 3.25402,1.196082 3.80213,1.379784 3.80213,1.276523 0,-0.01996 -0.13094,-0.355046 -0.29078,-0.745065 l -0.29078,-0.709222 -2.85444,-1.028163 c -1.57007,-0.565369 -2.87281,-1.045809 -2.89503,-1.068034 -0.0222,-0.02223 0.34948,-1.11574 0.82589,-2.430144 l 0.86614,-2.389913 0.48574,1.255671 0.48573,1.255672 0.84382,0.283466 c 0.46408,0.155936 0.84313,0.27515 0.84273,0.264816 -0.0125,-0.230516 -2.59348,-6.952642 -2.66058,-6.929426 z m 44.20129,3.92869 v 2.198616 c 0,1.209133 0.0578,2.256464 0.12875,2.327364 0.0708,0.07084 0.46208,0.129117 0.86943,0.129117 h 0.74067 v -1.497449 -1.497441 l 0.72495,1.178132 c 1.02313,1.663371 1.20209,1.844235 1.76006,1.777985 l 0.48939,-0.05818 0.78311,-1.310172 0.78274,-1.310533 0.0966,1.310533 0.0966,1.310172 0.82115,0.0596 0.82114,0.05924 v -2.329559 -2.329558 h -1.25092 -1.25092 l -0.72238,1.255671 c -0.39725,0.690699 -0.76878,1.255162 -0.8259,1.250915 -0.0571,-0.0028 -0.40888,-0.546435 -0.78164,-1.207753 l -0.67777,-1.202275 -1.30249,-0.05705 z m -35.12079,0.01791 -0.41698,0.337967 -0.41661,0.338328 0.0574,1.642293 0.0574,1.641918 0.6763,0.347111 0.67557,0.346744 1.86394,-0.05705 1.86394,-0.05705 0.40637,-0.367957 c 0.2314,-0.209657 0.406,-0.604595 0.406,-0.917704 v -0.549748 h -0.75202 c -0.5003,0 -0.79062,0.09976 -0.86686,0.298465 l -0.11449,0.298833 -1.30687,-0.05705 -1.30652,-0.05705 -0.0611,-0.850407 c -0.0394,-0.549465 0.029,-0.907278 0.19313,-1.011339 0.44446,-0.281945 2.21319,-0.19405 2.47622,0.122895 0.13814,0.166439 0.55918,0.289688 0.9894,0.289688 h 0.74945 v -0.483179 c 0,-0.265651 -0.17409,-0.656909 -0.38661,-0.869425 l -0.38625,-0.386246 h -2.20044 z m 44.00816,0 v 2.189471 l 3.6e-4,-7.08e-4 c 0,1.356901 -0.0106,2.457211 -0.0106,2.457211 0,0 1.4266,-0.01062 2.84345,-0.01062 h 2.57609 v -0.676302 -0.675935 h -1.83541 c -1.0177,0 -1.78566,0.0042 -1.78566,0.0042 l 0.0165,-0.423554 c 0,0 0.86663,0.01847 1.62473,-0.0064 l 1.69057,-0.05556 0.0611,-0.531458 0.0611,-0.53109 h -1.75165 -1.75165 V 68.2552 67.965512 h 1.83541 1.83541 v -0.579737 -0.57937 h -2.70483 z m 6.09804,0 1.10534,1.117049 1.10535,1.117042 -1.06291,1.049751 c -0.58472,0.577458 -1.06329,1.118203 -1.06329,1.201539 0,0.08334 0.40968,0.151427 0.91039,0.151427 h 0.9104 l 0.82846,-0.813099 0.82845,-0.813098 0.82846,0.813098 0.82846,0.813099 h 0.91039 c 0.50073,0 0.91039,-0.06809 0.91039,-0.151427 0,-0.08332 -0.4782,-0.624081 -1.06291,-1.201539 l -1.06329,-1.049751 1.10535,-1.117042 1.10534,-1.117049 h -1.04828 -1.04829 l -0.73299,0.715437 -0.73263,0.715436 -0.73263,-0.715436 -0.73262,-0.715437 h -1.04829 z m -43.19361,7.08e-4 -0.39392,0.394294 -0.3943,0.393933 0.0563,1.586326 0.056,1.58632 0.6763,0.350404 0.67594,0.350403 2.10717,-0.07644 2.10718,-0.07608 0.45281,-0.526702 0.45282,-0.526334 v -1.253845 -1.253845 l -0.47439,-0.474035 -0.47404,-0.474395 h -2.42393 z m 6.56915,0 v 2.189839 c 0,1.204335 0.0578,2.24732 0.12875,2.31822 h -0.001 c 0.0708,0.07084 0.46208,0.128749 0.86942,0.128749 h 0.74068 l 0.006,-1.497074 0.006,-1.497448 0.60132,0.676302 c 0.33077,0.37192 0.93166,1.045462 1.33541,1.49708 l 0.73409,0.82114 h 1.07388 1.07389 v -2.31822 -2.318588 h -0.77249 -0.77287 v 1.455384 1.455009 l -1.2692,-1.455009 -1.26921,-1.455384 h -1.2425 z m 7.53513,0 v 2.318588 2.317859 l 2.17339,-7.08e-4 c 3.61611,-0.0021 4.20227,-0.345583 4.20227,-2.465626 v -1.221658 l -0.47405,-0.474034 -0.4744,-0.474396 h -2.71361 z m 7.14853,0 v 1.712881 1.712514 l 0.39027,0.496344 c 0.21463,0.272885 0.58416,0.538154 0.82114,0.589611 v 3.68e-4 c 0.23698,0.05181 1.23232,0.07539 2.21178,0.05266 l 1.78055,-0.04134 0.48939,-0.459765 0.4894,-0.459772 v -1.80176 -1.80176 h -0.86138 -0.86174 l -0.056,1.594006 -0.0563,1.593639 h -1.25567 -1.25604 l -0.056,-1.593639 -0.0564,-1.594006 h -0.86137 z m -5.50623,1.158016 1.25567,0.0042 c 1.61462,0.0035 1.77868,0.117304 1.703,1.17557 l -0.0607,0.848941 -1.44916,0.05563 -1.4488,0.05563 V 69.03488 Z m -13.33143,0.0014 c 0.65904,0 1.28074,0.102234 1.41039,0.231896 0.29952,0.299484 0.29952,1.362174 0,1.661672 h 10e-4 c -0.22635,0.226256 -2.31636,0.303561 -2.81127,0.103877 -0.3092,-0.124403 -0.31656,-1.459603 -0.0106,-1.765549 0.12963,-0.129598 0.75134,-0.231896 1.41039,-0.231896 z m -15.48321,2.79408 c -0.19386,0 -2.4958,1.018269 -2.52927,1.118875 -0.0169,0.05068 0.3101,0.21544 0.72677,0.36577 0.41669,0.150322 0.78961,0.276268 0.82883,0.279807 0.069,0.0064 1.34024,-0.514811 1.43417,-0.588153 0.0903,-0.0705 -0.34263,-1.176299 -0.4605,-1.176299 z m -5.19717,2.223488 -0.8654,0.368693 -0.86539,0.369054 -0.19935,0.577182 c -0.10963,0.317504 -0.23261,0.6594 -0.27359,0.759695 -0.11103,0.271802 -0.005,0.24475 1.95502,-0.499636 0.98777,-0.375105 1.86125,-0.704508 1.94111,-0.7319 0.21971,-0.07545 0.0844,-0.158341 -0.84272,-0.515731 z"
       inkscape:label="condumex"
       inkscape:export-filename="..\..\..\Users\migue\OneDrive\Escritorio\svg\condumex.svg"
       inkscape:export-xdpi="96"
       inkscape:export-ydpi="96" /><path
       id="path6-4"
       style="fill:#191919;fill-opacity:1;stroke-width:0.260999"
       d="m 238.23578,91.490732 v 3.556246 3.556251 h 1.8852 1.8852 l 0.0844,-0.40774 c 0.0463,-0.22426 0.19761,-0.63588 0.33623,-0.91487 l 0.25182,-0.507135 0.52354,-0.524233 0.52353,-0.524228 0.51795,-0.25357 c 2.4532,-1.201468 5.37131,0.175187 5.94335,2.803906 l 0.0865,0.39693 h 1.68604 1.68639 l -0.0251,-2.123429 -0.0251,-2.123418 -0.17718,-0.4611 c -0.45702,-1.191045 -1.33,-2.002963 -2.54058,-2.362345 l -0.37529,-0.111265 h -6.13344 z m 49.10171,2.547201 c -0.18273,0 -0.70954,0.05156 -1.17053,0.114753 l -0.83815,0.1151 0.0544,3.782613 0.0541,3.782951 0.47679,0.71955 c 0.27857,0.42058 0.79782,0.87831 1.25006,1.10217 l 0.77361,0.38297 h 1.1231 c 1.32366,1.7e-4 2.21446,-0.38813 3.03585,-1.32365 2.47358,-2.817251 -0.42959,-7.329013 -3.80772,-5.91754 l -0.6191,0.258803 v -1.508857 -1.508863 z m -28.41927,2.461751 -0.28216,0.10847 c -0.15537,0.0596 -0.59735,0.10847 -0.98219,0.10847 h -0.70001 v 3.683206 3.68321 l 0.55805,-0.11162 c 0.30693,-0.0614 0.7891,-0.11161 1.07148,-0.11161 h 0.51342 v -2.13144 c 0,-2.778571 0.34078,-3.560041 1.31423,-3.015281 l 0.29298,0.16428 v 2.586611 2.58662 l 0.93754,-0.10987 c 0.51565,-0.0604 1.04524,-0.14348 1.17647,-0.18486 l 0.23856,-0.0753 -0.06,-2.90156 -0.0603,-2.901581 -0.33205,-0.49004 c -0.62768,-0.925456 -2.45033,-1.093703 -3.29745,-0.30449 l -0.38855,0.36204 v -0.472613 z m 42.87305,0.03172 c -1.07924,-0.05305 -2.17925,0.331886 -2.98667,1.170185 l -0.74083,0.76908 -0.19497,0.90859 -0.19497,0.908951 0.19601,0.91347 c 0.22019,1.02671 1.14097,2.19964 2.0324,2.58871 0.29465,0.1286 1.05808,0.23621 1.6965,0.23891 l 1.16077,0.005 0.91591,-0.42657 c 1.19952,-0.55851 1.26455,-0.7075 0.67875,-1.55281 -0.65182,-0.94056 -0.66614,-0.9456 -1.49211,-0.52422 -0.39234,0.20015 -0.93733,0.3627 -1.21135,0.36135 -1.15934,-0.006 -0.95271,-0.28862 1.23994,-1.69372 1.20483,-0.772081 2.22028,-1.425841 2.25667,-1.452711 0.0364,-0.0269 -0.18631,-0.36754 -0.49494,-0.75721 -0.72352,-0.91353 -1.78186,-1.404563 -2.86111,-1.457594 z m -27.38546,0.0015 c -1.53683,0.06743 -3.0777,0.992695 -3.62634,2.429315 l -0.3031,0.79349 0.10498,1.015671 0.10464,1.01568 0.50051,0.71047 c 0.27522,0.3907 0.8545,0.89701 1.28738,1.12554 l 0.78721,0.41576 h 1.04881 c 1.02671,0 1.87691,-0.25097 2.52,-0.74397 l 0.32123,-0.24624 -0.64491,-0.82802 -0.64491,-0.82767 -0.47994,0.25042 c -1.37035,0.71493 -2.75983,-0.26951 -2.46453,-1.746031 0.23098,-1.15489 1.34587,-1.68784 2.39548,-1.14507 l 0.54376,0.28147 0.54933,-0.7471 c 0.67269,-0.91472 0.67273,-0.88407 0,-1.281454 -0.60333,-0.356403 -1.30103,-0.502888 -1.9996,-0.472261 z m 23.19024,0.0054 c -0.57425,0 -1.2266,0.254517 -1.59466,0.622585 l -0.29577,0.29577 v -0.447836 -0.448202 l -0.66968,0.08964 c -0.36832,0.04929 -0.85049,0.126296 -1.07147,0.170911 l -0.40181,0.08092 v 3.591818 3.59148 l 0.66968,-0.11057 c 0.36832,-0.0609 0.89066,-0.1113 1.16076,-0.11265 l 0.49109,-0.002 v -2.01391 -2.013901 l 0.26997,-0.38541 c 0.1484,-0.21187 0.48166,-0.41059 0.74047,-0.44157 l 0.47052,-0.0562 0.21939,-0.74745 c 0.12073,-0.41099 0.27124,-0.95342 0.33448,-1.205416 l 0.11511,-0.457958 z m -30.3962,5.09e-4 c -0.60159,-3.72e-4 -1.34021,0.04857 -1.6414,0.108821 l -0.5476,0.109524 -0.18904,0.881391 c -0.23467,1.09412 -0.236,1.27128 -0.01,1.13146 0.88016,-0.54397 2.85657,-0.35721 2.85657,0.26997 v 0.36797 l -0.3453,-0.18486 c -1.03259,-0.55263 -2.77295,0.0159 -3.32674,1.086831 l -0.29648,0.57305 0.0841,0.87197 0.0837,0.87162 0.51655,0.54586 c 0.28408,0.30026 0.67693,0.61299 0.87337,0.69478 h 3.5e-4 c 0.55156,0.22965 1.28951,0.19676 1.96995,-0.0876 l 0.61946,-0.2588 v 0.26683 0.26682 l 0.66967,-0.10742 c 0.36831,-0.0592 0.85877,-0.14712 1.08996,-0.19498 l 0.42029,-0.0868 -0.0684,-2.8046 c -0.0746,-3.060711 -0.17101,-3.410281 -1.09624,-3.974441 l -0.56888,-0.346694 z m 13.76807,0.01395 c -1.00429,-0.009 -2.01796,0.315573 -2.77705,1.001376 l -0.70317,0.63514 -0.28077,0.96684 c -0.56029,1.927351 0.19073,3.673191 1.98007,4.601911 2.63989,1.37017 5.8098,-0.80111 5.59074,-3.829691 l -0.075,-1.03659 -0.46877,-0.70839 c -0.69891,-1.05614 -1.97482,-1.619073 -3.26605,-1.630596 z m 20.80068,1.949736 c 0.48375,0 0.46556,0.25074 -0.0359,0.49737 -0.22099,0.10868 -0.66298,0.3704 -0.98218,0.58178 -0.5695,0.37712 -0.69048,0.30839 -0.46948,-0.26753 0.13394,-0.34902 0.98185,-0.81162 1.48758,-0.81162 z m -12.6338,0.17404 c 0.29573,0.015 0.60619,0.12646 0.90789,0.36379 0.78978,0.62121 0.7823,2.006771 -0.0139,2.611721 -0.47474,0.36069 -1.58853,0.29981 -1.99751,-0.10917 -1.18306,-1.18306 -0.17796,-2.931271 1.10357,-2.866341 z m -8.9656,0.18311 h 0.7907 0.7907 l 0.37006,0.47052 c 0.48256,0.61344 0.47003,1.364571 -0.0317,1.912401 -0.5463,0.59646 -1.18336,0.70708 -1.92915,0.33484 l -0.61561,-0.30693 -0.0541,-0.83884 -0.0541,-0.838831 0.36658,-0.36658 z m -41.93342,0.8486 v 2.024721 2.02471 l 0.11022,0.37495 c 0.44015,1.49851 1.61116,2.469 3.27373,2.71357 v 5.1e-4 c 0.0949,0.014 2.87585,0.0215 6.18018,0.0174 l 6.00787,-0.008 0.0185,-1.77813 0.0185,-1.77812 -4.12721,-0.002 -4.12722,-0.002 -0.4318,-0.10185 c -0.23751,-0.056 -0.65708,-0.21521 -0.93231,-0.35367 l -0.50051,-0.25183 -0.52353,-0.52562 -0.52354,-0.52597 -0.25182,-0.50714 c -0.13861,-0.27898 -0.28993,-0.69095 -0.33623,-0.91522 l -0.0844,-0.407731 h -1.8852 z m 28.53995,0.937201 c 0.8627,0 1.26294,1.03951 0.5476,1.42236 -0.45824,0.24523 -0.5754,0.23478 -1.04358,-0.0931 -0.71042,-0.4976 -0.40013,-1.32923 0.49598,-1.32923 z"
       inkscape:label="nacobre"
       inkscape:export-filename="..\..\..\Users\migue\OneDrive\Escritorio\svg\nacobre.svg"
       inkscape:export-xdpi="96"
       inkscape:export-ydpi="96" /><path
       style="fill:#191919;fill-opacity:1;stroke-width:0.678578"
       d="m 257.28853,134.76024 c -3.64661,-2.64159 -3.97108,-7.33751 -0.75572,-10.93737 2.10699,-2.35896 2.60722,-2.43161 3.93201,-0.57113 l 0.38651,0.5428 -1.28255,1.26988 c -1.54531,1.53006 -1.70017,1.86991 -1.43473,3.14852 0.31792,1.53143 2.19368,4.01248 3.03356,4.01248 0.37552,0 0.15863,0.26187 -1.39362,1.68259 -1.7243,1.5782 -1.56071,1.52211 -2.48546,0.85223 z m 24.71876,0.19779 c 0,-0.077 0.44436,-2.26164 0.98747,-4.8547 1.17134,-5.59251 1.13571,-5.05954 0.33814,-5.05954 h -0.64933 l 0.11503,-0.40397 c 0.0633,-0.22218 0.16359,-0.62614 0.22292,-0.89769 0.0935,-0.42765 0.19502,-0.49391 0.75873,-0.49501 l 0.65084,-10e-4 0.31006,-1.28533 c 0.60297,-2.49952 1.67055,-3.3791 4.17357,-3.43861 1.60629,-0.0382 1.61259,-0.0326 1.35439,1.21119 l -0.20795,1.00171 h -0.8712 c -1.27844,0 -2.32431,1.06597 -2.33407,2.37891 -5e-4,0.0741 0.49017,0.13466 1.0905,0.13466 h 1.09151 l -0.11744,0.58351 c -0.2521,1.25256 -0.20347,1.21189 -1.44929,1.21189 -0.99512,0 -1.15491,0.045 -1.15491,0.32522 0,0.25868 -1.49059,7.62248 -1.88759,9.32508 l -0.0942,0.40397 h -1.16359 c -0.63998,0 -1.16359,-0.063 -1.16359,-0.14002 z m -12.47806,-2.98442 c -2.40589,-1.06198 -2.22853,-5.71102 0.30265,-7.93343 1.86009,-1.63318 5.23793,-1.3011 4.81229,0.47311 l -0.2132,0.88879 -1.24102,-0.11536 c -1.79528,-0.16685 -2.63985,0.78659 -2.81121,3.17358 -0.11731,1.63407 0.0366,1.74022 1.92999,1.33113 1.66958,-0.36073 1.54552,-0.41099 1.66191,0.67326 l 0.0904,0.84261 -0.65942,0.26385 c -1.4686,0.58761 -3.07481,0.75455 -3.87244,0.40246 z m 7.18161,0.0936 c -4.43186,-1.13969 -2.72564,-8.51617 2.07043,-8.95106 3.21477,-0.29151 4.86937,2.55238 3.43367,5.90173 -0.93481,2.18083 -3.45405,3.57652 -5.5041,3.04933 z m 2.72564,-2.76111 c 1.27124,-1.90215 1.13765,-3.85223 -0.29328,-4.28095 l -0.73744,-0.22094 -0.61575,0.59682 c -0.69717,0.67572 -1.16894,1.86883 -1.16894,2.95631 0,1.9857 1.73227,2.56946 2.81541,0.94876 z m 14.24094,2.52801 c -3.49578,-1.80263 -1.06909,-8.75461 3.05903,-8.7635 4.56649,-0.01 3.44893,4.7758 -1.23912,5.3062 l -1.10175,0.12465 v 0.41397 c 0,1.37942 0.36909,1.5232 2.56252,0.99829 0.76752,-0.18367 1.42475,-0.28404 1.4605,-0.22302 0.0358,0.061 0.12046,0.44634 0.18826,0.85629 l 0.12328,0.74536 -0.99114,0.37083 c -1.62546,0.60817 -3.09382,0.66995 -4.06158,0.17093 z m 3.3354,-5.43636 c 0.59283,-0.38843 0.58308,-1.11462 -0.0187,-1.38878 -0.68041,-0.31002 -1.58771,0.18638 -2.07056,1.13285 l -0.38323,0.75121 1.01876,-0.10514 c 0.56031,-0.0578 1.21448,-0.23339 1.45369,-0.39014 z m -35.94693,4.9563 c -0.38896,-0.28176 -0.85091,-0.73163 -1.02655,-0.99969 l -0.31936,-0.4874 1.3587,-1.42213 1.3587,-1.42215 -1.5e-4,-0.85478 c -2.5e-4,-1.52327 -1.37109,-3.79369 -2.85857,-4.73445 l -0.43493,-0.27507 0.79401,-0.721 c 2.22697,-2.02222 2.293,-2.06937 2.71163,-1.9365 0.68798,0.21835 2.18594,1.92085 2.84334,3.23158 l 0.62524,1.24663 v 1.88517 c 0,2.41828 -0.2393,2.93771 -2.41947,5.25156 -1.87965,1.99491 -1.70284,1.91174 -2.63259,1.23823 z m 27.22532,0.39937 c 0,-0.18246 2.73795,-13.07113 2.79119,-13.13924 0.024,-0.0307 0.53696,-1.3e-4 1.13982,0.068 l 1.09612,0.12402 -0.008,0.38077 c -0.005,0.20942 -0.5961,3.12775 -1.31451,6.48515 l -1.30618,6.10438 -1.19907,0.0531 c -0.65948,0.0292 -1.19905,-0.005 -1.19905,-0.0763 z m 10.34424,-0.1115 c 0.50626,-0.86315 1.7067,-2.52157 2.51441,-3.47368 l 0.95837,-1.12974 -0.55656,-1.31155 c -0.3061,-0.72134 -0.70836,-1.526 -0.8939,-1.7881 -0.483,-0.68233 -0.47148,-0.69045 0.9799,-0.69045 h 1.31726 l 0.61951,1.38513 0.61951,1.38513 0.87745,-1.38513 0.87744,-1.38513 h 1.13568 c 0.70283,0 1.13568,0.0749 1.13568,0.19651 0,0.30861 -1.53412,2.51648 -2.4905,3.58428 l -0.86708,0.96809 0.48515,1.1765 c 0.26684,0.64708 0.6151,1.41663 0.7739,1.71011 l 0.36903,0.75804 c 0.10303,0.1715 -0.17948,0.22442 -1.1978,0.22442 h -1.33263 l -0.47337,-1.0548 c -0.26035,-0.58015 -0.47337,-1.1457 -0.47337,-1.25679 0,-0.4817 -0.41359,-0.11569 -1.19192,1.05482 l -0.8357,1.25677 h -1.24104 c -0.94334,0 -1.20947,-0.0538 -1.10941,-0.22442 z"
       id="path7"
       sodipodi:nodetypes="ssscssssscsscssscssscssscsssscsccssscsssscsssssssscsssssscsssscssssscsssscccsscssscssssssccscssssscssscccccssscsccscssscsss"
       inkscape:label="coflex"
       inkscape:export-filename="..\..\..\Users\migue\OneDrive\Escritorio\svg\coflex.svg"
       inkscape:export-xdpi="96"
       inkscape:export-ydpi="96" /><path
       style="fill:#191919;fill-opacity:1;stroke-width:0.659978"
       d="m 324.22355,96.185457 c -3.64207,-2.864869 5.77061,-14.671931 9.96672,-12.502036 1.66945,0.863303 0.47954,4.644922 -1.35925,4.319819 -0.86949,-0.153724 -0.86071,-0.90166 0.0217,-1.859066 1.12987,-1.225765 0.19913,-1.78246 -1.55797,-0.931858 -2.40063,1.162118 -6.13303,6.678023 -6.14412,9.080033 -0.005,1.157775 1.61963,1.231611 3.29364,0.149644 1.22514,-0.791848 1.76737,-0.892691 1.76737,-0.328699 0,1.58865 -4.58556,3.175452 -5.98817,2.072163 z m 14.02067,0.135462 c -0.32201,-0.168618 -0.45972,-0.410756 -0.52481,-0.922799 l -0.0883,-0.6942 -0.30709,0.453286 c -0.81168,1.19811 -2.39762,0.963619 -2.39762,-0.3545 0,-0.460544 -0.0762,-0.45351 -0.76319,0.07043 -3.76053,2.868301 -4.9104,-1.082631 -1.38121,-4.745801 1.92671,-1.99985 4.97269,-2.759021 4.54759,-1.133412 -0.0684,0.261643 0.004,0.30359 0.41594,0.243042 0.67606,-0.09923 0.66351,0.348272 -0.0494,1.760496 -0.52578,1.041565 -1.2472,2.929852 -1.15469,3.022354 0.28801,0.288022 1.18272,-1.138248 2.14507,-3.419448 2.02219,-4.793525 4.56201,-7.847592 5.63438,-6.775219 0.68049,0.680479 -0.42781,3.402542 -2.22907,5.474856 -3.01485,3.468478 -3.87128,5.75315 -2.15665,5.75315 0.36305,0 0.50515,0.09391 0.54306,0.358878 0.11114,0.77691 -1.35051,1.371548 -2.23408,0.90888 z m -4.20464,-3.256547 c 0.43873,-0.616139 0.45423,-0.820062 0.0733,-0.966216 -0.25274,-0.09699 -0.2332,-0.171685 0.15329,-0.586197 0.47249,-0.506734 0.9163,-1.260827 0.74203,-1.260827 -0.83376,0 -2.8461,3.008557 -2.44569,3.656441 0.16666,0.26964 1.03938,-0.228582 1.47702,-0.843201 z m 7.66596,-5.210942 c 0.90246,-1.499246 1.11434,-2.079488 0.49536,-1.35661 -0.43138,0.503804 -1.51202,2.369434 -1.51202,2.610383 0,0.282628 0.3564,-0.156896 1.01666,-1.253773 z m 9.75152,8.567581 c -0.43801,-0.438014 2.14205,-5.414455 4.97393,-9.593732 1.40486,-2.073279 1.39197,-2.024814 0.50038,-1.882238 -0.7978,0.127573 -1.05706,-0.182009 -0.7383,-0.881617 0.33385,-0.732712 4.62312,-1.189527 6.16344,-0.656414 3.74582,1.296444 0.50902,6.938566 -4.5248,7.887229 -1.29415,0.243885 -1.30936,0.261513 -1.20638,1.3972 0.22518,2.483423 0.87336,2.632293 3.39404,0.779498 0.99581,-0.731955 1.01028,0.495793 0.0176,1.488525 -2.56983,2.569826 -4.8467,1.736951 -4.8602,-1.777848 l -0.005,-1.446218 -0.24544,0.32401 c -0.135,0.178207 -0.57456,1.08186 -0.97682,2.008121 -0.95653,2.202566 -1.82372,3.021603 -2.49184,2.353484 z m 6.7936,-6.635084 c 2.30278,-0.777605 4.22352,-3.001958 3.85615,-4.465681 -0.21241,-0.84633 -1.87462,-1.137899 -2.50076,-0.438652 -0.28462,0.31785 -2.91803,4.130575 -3.43732,4.976649 -0.19907,0.324326 1.03415,0.28149 2.08193,-0.07232 z m -14.2416,6.096399 c -3.02299,-1.516179 2.01892,-9.166461 5.32259,-8.076148 1.3971,0.461077 1.67213,1.736827 0.76345,3.541295 -1.89281,3.758794 -4.20229,5.479646 -6.08604,4.534853 z m 2.45701,-1.838108 c 0.32465,-0.218786 0.89144,-0.827765 1.25954,-1.353308 l 0.66926,-0.955514 -0.44792,-0.05527 c -0.61357,-0.07568 -0.56458,-0.333831 0.25055,-1.320258 0.76548,-0.926331 0.7915,-0.993598 0.49789,-1.287217 -0.58737,-0.587357 -3.46662,2.557965 -3.8916,4.251216 -0.24936,0.993546 0.66737,1.390798 1.66228,0.720338 z m 21.15782,2.028318 c -0.44311,-0.178801 -0.17881,-0.607272 1.54643,-2.506963 l 1.76471,-1.94315 -0.11839,-0.94757 c -0.15717,-1.257928 -0.18692,-1.243763 -2.00733,0.955683 -3.48025,4.204881 -5.86412,5.317867 -7.38052,3.445841 -1.35329,-1.670653 2.04026,-7.444533 4.37546,-7.444533 2.17265,0 1.57435,2.352728 -1.31773,5.18183 -1.26646,1.238899 -1.38777,1.608329 -0.45091,1.373184 0.61744,-0.154958 2.42837,-1.920567 4.12632,-4.023039 2.67663,-3.314287 4.12302,-3.574072 4.13205,-0.742128 7e-4,0.469264 0.14868,0.386777 1.32432,-0.742139 1.11208,-1.067863 1.41359,-1.209451 1.78488,-0.838163 0.4249,0.424909 0.17596,0.905324 -1.27473,2.459981 l -1.48426,1.590645 v 0.827068 c 0,1.37202 0.23064,1.760549 1.00489,1.692813 l 0.65399,-0.05722 0.0577,0.407293 c 0.11638,0.821686 -1.0614,1.595301 -1.89994,1.247959 -0.52273,-0.216513 -0.76047,-0.605479 -1.03841,-1.698901 -0.2386,-0.938734 -0.30904,-0.930435 -1.11907,0.131751 -1.15253,1.511284 -1.87859,1.952914 -2.67944,1.629762 z m -3.12109,-5.448102 c 0.70837,-1.048231 0.822,-1.469801 0.26088,-0.967875 -0.4638,0.414859 -1.10627,1.414274 -1.28024,1.991524 l -0.13155,0.436552 0.25906,-0.261931 c 0.14249,-0.144057 0.54381,-0.683286 0.89185,-1.19827 z m -22.89717,1.431857 c -0.32283,-0.130261 -0.26486,-0.888633 0.0828,-1.083196 0.42489,-0.237777 0.92126,0.07211 0.92126,0.57515 0,0.509742 -0.44359,0.734202 -1.00406,0.508046 z m 9.65146,-0.167473 c -0.33366,-0.333665 -0.2909,-0.74361 0.10348,-0.991936 0.64219,-0.404364 1.19626,0.512888 0.64363,1.065518 -0.27753,0.277536 -0.40894,0.264591 -0.74711,-0.07358 z m -1.7409,-4.91179 c -0.13721,-0.168078 -0.54074,-0.659196 -0.89671,-1.091378 -1.43869,-1.746675 -1.43669,-2.724912 0.01,-4.803122 0.51716,-0.743008 1.034,-1.577124 1.14852,-1.853587 0.31361,-0.757132 0.52066,-0.627011 1.49783,0.941355 1.72064,2.761629 1.85643,3.580504 0.83314,5.023919 -0.27843,0.392752 -0.69621,0.98403 -0.92839,1.313938 -0.92395,1.312832 -1.26155,0.176707 -0.35444,-1.192775 0.86597,-1.307392 0.42268,-4.606487 -0.57467,-4.276667 -1.16988,0.386876 -1.60393,2.826257 -0.77936,4.380065 0.69308,1.306043 0.72387,2.390749 0.0443,1.558252 z"
       id="path8"
       sodipodi:nodetypes="sssssssssssscssssssssssssssssssssssssscssssssssccssccssssssssssscsssssssscssssssscssscsscssssssssscssssssssssssssssssssss"
       inkscape:label="calorex"
       inkscape:export-filename="..\..\..\Users\migue\OneDrive\Escritorio\svg\calorex.svg"
       inkscape:export-xdpi="96"
       inkscape:export-ydpi="96" /><path
       style="fill:#191919;fill-opacity:1;stroke-width:0.600886"
       d="m 323.21448,120.53324 c -2.28533,-0.59166 -3.48424,-1.21178 -4.075,-2.10777 l -0.29496,-0.44737 -3.5e-4,-0.55644 -3.5e-4,-0.55644 0.30854,-0.50602 c 1.89443,-3.10693 11.66693,-5.96582 22.45879,-6.57021 l 3.08366,-0.17269 2.62996,0.16594 c 2.28291,0.14404 4.48892,0.42772 5.85838,0.75334 0.2186,0.052 0.36136,0.0543 0.31724,0.005 -0.33432,-0.37231 -4.81247,-1.00401 -8.18694,-1.15486 l -2.38476,-0.10661 -2.69017,0.17973 c -9.98801,0.6673 -19.41624,3.16977 -22.47509,5.96538 l -0.8791,0.80345 -0.28923,0.63666 c -0.15908,0.35016 -0.29053,0.88705 -0.29213,1.1931 l -0.003,0.55644 0.30483,0.49991 c 0.16766,0.27495 0.56087,0.70421 0.87381,0.9539 0.82147,0.65545 0.74201,0.68363 -1.03011,0.36533 -2.73799,-0.49177 -4.47085,-1.15675 -5.37781,-2.0637 l -0.49532,-0.49533 v -0.73514 -0.73514 l 0.91415,-0.8844 0.91417,-0.88439 1.12855,-0.59002 c 4.04098,-2.11268 11.20697,-3.85887 19.77782,-4.81938 l 2.30527,-0.25835 5.04744,-0.0856 5.04745,-0.0856 1.95311,0.18363 c 2.6566,0.24978 5.34243,0.81842 6.86552,1.45357 l 1.2663,0.52806 0.68712,0.707 c 0.89276,0.91858 0.79081,0.9671 -0.62238,0.29625 -1.2787,-0.60701 -3.09055,-1.08902 -5.30007,-1.40997 l -1.43085,-0.20785 -3.81562,0.005 -3.81561,0.005 -1.90781,0.28028 c -8.27909,1.2163 -14.57761,4.30659 -15.10184,7.40952 l -0.10302,0.60977 0.16717,0.62083 0.16718,0.62084 0.49857,0.50996 0.49857,0.50995 -0.53556,-0.008 c -0.29456,-0.004 -1.17944,-0.17451 -1.96641,-0.37826 z m 32.67119,-9.07348 c 0,-0.0437 -0.0358,-0.0795 -0.0795,-0.0795 -0.0437,0 -0.0795,0.0358 -0.0795,0.0795 0,0.0437 0.0358,0.0795 0.0795,0.0795 0.0437,0 0.0795,-0.0357 0.0795,-0.0795 z m -0.31797,-0.15898 c 0,-0.0437 -0.0358,-0.0795 -0.0795,-0.0795 -0.0437,0 -0.0795,0.0358 -0.0795,0.0795 0,0.0437 0.0358,0.0795 0.0795,0.0795 0.0437,0 0.0795,-0.0357 0.0795,-0.0795 z m -0.31797,-0.15898 c 0,-0.0437 -0.0358,-0.0795 -0.0795,-0.0795 -0.0437,0 -0.0795,0.0358 -0.0795,0.0795 0,0.0437 0.0357,0.0795 0.0795,0.0795 0.0437,0 0.0795,-0.0357 0.0795,-0.0795 z m -0.37096,-0.18548 c -0.0583,-0.0583 -0.15368,-0.0583 -0.21198,0 -0.0583,0.0583 -0.0106,0.10599 0.10599,0.10599 0.11659,0 0.16429,-0.0477 0.10599,-0.10599 z m -0.58294,-0.21198 c -0.13116,-0.0848 -0.34579,-0.15019 -0.47696,-0.14538 -0.0714,-0.0267 -0.13021,-0.0416 -0.18337,-0.0429 -0.0926,-0.002 -0.16803,0.025 -0.26244,0.0201 l 0.52531,0.16818 c 0.43706,0.18781 0.68808,0.18781 0.39746,0 z m -3.76269,8.56966 c -0.27693,-0.0802 -0.69572,-0.37421 -0.93065,-0.6534 l -0.42714,-0.50763 0.0626,-0.9825 0.0626,-0.98251 0.45218,-0.59284 0.45218,-0.59283 0.65439,-0.29717 0.65439,-0.29717 0.72479,-0.004 c 0.39863,-0.002 0.84135,0.0859 0.9838,0.19524 l 0.25903,0.19873 -0.0845,0.41778 -0.0845,0.41777 -0.50188,-0.15241 -0.50188,-0.15242 -0.42889,0.16475 c -0.23589,0.0906 -0.55108,0.35122 -0.70042,0.57915 l -0.27152,0.41439 -0.015,0.68109 -0.015,0.68109 0.23223,0.27988 0.23223,0.27988 0.82283,-0.0682 0.82282,-0.0682 -0.16041,0.46014 -0.1604,0.46014 -0.3883,0.14763 c -0.4691,0.17835 -1.06868,0.16914 -1.74553,-0.0268 z m 3.66971,-0.0516 c -0.26973,-0.11744 -0.64534,-0.41046 -0.83466,-0.65115 l -0.34423,-0.43762 v -0.77981 -0.77981 l 0.30105,-0.58986 c 0.53023,-1.03888 1.50972,-1.62324 2.72087,-1.62324 h 0.64737 l 0.59828,0.30521 0.59827,0.30521 0.19031,0.41769 c 1.04744,2.29889 -1.53577,4.85287 -3.87726,3.83338 z m 1.98507,-1.30049 c 0.62856,-0.79909 0.63027,-2.11922 0.003,-2.45484 l -0.32676,-0.17486 -0.39389,0.25808 c -0.46274,0.3032 -0.72316,0.88988 -0.75083,1.69152 l -0.0199,0.57564 0.21497,0.25903 c 0.11823,0.14245 0.37987,0.25902 0.58142,0.25902 h 0.36645 z m -28.4424,1.21081 c 0,-0.17568 2.16122,-4.26306 2.41805,-4.5731 l 0.16462,-0.19872 h 0.61647 c 0.33906,0 0.61647,0.04 0.61647,0.089 0,0.0984 0.73247,3.41451 0.89337,4.04462 l 0.1015,0.39746 0.57571,-2.22578 0.5757,-2.22576 h 0.63594 0.63593 l 0.47514,1.3911 c 0.57549,1.68497 0.43936,1.68931 1.57767,-0.0503 l 0.93992,-1.43642 0.57043,0.0478 0.57043,0.0478 -0.0467,2.14627 -0.0467,2.14629 0.61983,-1.11289 c 0.34091,-0.61209 0.86866,-1.57791 1.17279,-2.14628 l 0.55295,-1.03339 0.64905,-0.0483 0.64905,-0.0482 0.089,0.2867 c 0.18912,0.60939 0.89174,4.03434 0.89174,4.34681 v 0.32938 l -0.75436,-0.0484 -0.75435,-0.0484 -0.081,-0.47696 -0.081,-0.47695 -0.51545,-0.0498 -0.51544,-0.0497 -0.33423,0.56648 -0.33423,0.56647 h -1.43367 -1.43367 l 0.0653,-1.02581 0.0653,-1.02581 -0.64514,0.98607 -0.64514,0.98606 h -0.54528 -0.54528 l -0.3187,-0.99633 -0.3187,-0.99632 -0.2527,0.99632 -0.25271,0.99633 h -1.49429 -1.49429 l -0.13389,-0.5167 -0.13389,-0.51669 h -0.55447 -0.55446 l -0.26535,0.55644 -0.26535,0.55644 h -0.68598 -0.68599 z m 11.28785,-0.24078 c 0,-0.0437 -0.0358,-0.0795 -0.0795,-0.0795 -0.0437,0 -0.0795,0.0357 -0.0795,0.0795 0,0.0437 0.0358,0.0795 0.0795,0.0795 0.0438,0 0.0795,-0.0358 0.0795,-0.0795 z m -8.43178,-2.02705 -0.005,-0.51669 -0.22721,0.39746 c -0.29271,0.51203 -0.29271,0.63593 0,0.63593 h 0.23848 z m 11.16133,0 -0.0771,-0.51669 -0.0759,0.23847 c -0.0417,0.13116 -0.14023,0.36368 -0.21893,0.5167 l -0.1431,0.27822 h 0.29603 0.29603 z m 2.03997,2.27769 c 0,-0.26313 0.64165,-4.19649 0.73609,-4.51225 l 0.0858,-0.28702 0.58268,0.0486 0.58269,0.0486 0.79492,1.1694 0.79492,1.16939 0.12637,-1.00271 c 0.15185,-1.20489 0.30231,-1.41557 1.01097,-1.41557 h 0.54197 l 0.0942,0.24538 c 0.0518,0.13496 -0.0577,1.19828 -0.24346,2.36294 -0.1857,1.16467 -0.33763,2.16748 -0.33763,2.22847 0,0.061 -0.26477,0.0887 -0.58838,0.0615 l -0.58838,-0.0493 -0.8229,-1.14926 -0.8229,-1.14927 -0.21831,1.14927 -0.2183,1.14926 -0.75518,0.0484 -0.75517,0.0484 z"
       id="path11"
       sodipodi:nodetypes="cscccsscsscscsscsccsssscccccsscccsscssscccssccccccccsssssssssssssssssssscsccsscsccccccccscccccsscccccccccsccsscccsscccsscscsscssccsscssscccccsscccccsscccsscccccccccccccccccccccccccccccccssssssccssccccssccccsscccccsscsssscccccccs"
       inkscape:label="amanco"
       inkscape:export-filename="..\..\..\Users\migue\OneDrive\Escritorio\svg\amanco.svg"
       inkscape:export-xdpi="96"
       inkscape:export-ydpi="96" /></g></svg>
