<?xml version="1.0" encoding="UTF-8" standalone="no"?>
<!-- Created with Inkscape (http://www.inkscape.org/) -->

<svg
   width="83.822166mm"
   height="84.125862mm"
   viewBox="0 0 83.822166 84.125862"
   version="1.1"
   id="svg1"
   xml:space="preserve"
   xmlns:inkscape="http://www.inkscape.org/namespaces/inkscape"
   xmlns:sodipodi="http://sodipodi.sourceforge.net/DTD/sodipodi-0.dtd"
   xmlns="http://www.w3.org/2000/svg"
   xmlns:svg="http://www.w3.org/2000/svg"><sodipodi:namedview
     id="namedview1"
     pagecolor="#ffffff"
     bordercolor="#000000"
     borderopacity="0.25"
     inkscape:showpageshadow="2"
     inkscape:pageopacity="0.0"
     inkscape:pagecheckerboard="0"
     inkscape:deskcolor="#d1d1d1"
     inkscape:document-units="mm" /><defs
     id="defs1" /><g
     inkscape:label="Layer 1"
     inkscape:groupmode="layer"
     id="layer1"
     transform="translate(-55.265756,-125.5188)"><path
       style="fill:#000000"
       d="m 90.932829,209.38166 c -0.0899,-0.14552 -0.51198,-0.26458 -0.93786,-0.26458 -1.04656,0 -5.666898,-1.14027 -7.528808,-1.85805 -2.22007,-0.85587 -3.53198,-1.42654 -4.07946,-1.77456 -0.35194,-0.22371 -1.4235,-0.8222 -2.38125,-1.32999 -0.95776,-0.50778 -2.09856,-1.21244 -2.53512,-1.56591 -0.43657,-0.35346 -1.32953,-1.06146 -1.98438,-1.57332 -3.44795,-2.69513 -8.30366,-8.12622 -10.37969,-11.60963 -1.46504,-2.45823 -3.11406,-5.84978 -3.11406,-6.4047 0,-0.27551 -0.0998,-0.61404 -0.22177,-0.75228 -1.97311,-2.23631 -3.22448,-16.03503 -2.05073,-22.6131 2.33049,-13.06073 13.16527,-26.42141 25.09914,-30.95047 1.19707,-0.45431 2.53367,-0.9878 2.97024,-1.18555 0.86745,-0.39294 3.765918,-1.18512 5.027078,-1.37396 0.43656,-0.0654 1.50812,-0.22999 2.38125,-0.36584 2.16718,-0.33717 10.051221,-0.3155 12.384731,0.034 2.07128,0.31027 6.76899,1.50265 7.19444,1.82611 0.14552,0.11064 0.74083,0.35286 1.32291,0.53826 0.58209,0.18541 1.83224,0.69047 2.77813,1.12236 0.94588,0.43189 1.95791,0.89082 2.24896,1.01984 0.53198,0.23584 3.98406,2.41603 5.86799,3.70599 1.32246,0.90551 6.87737,6.64418 7.90953,8.17117 0.44263,0.65485 1.22056,1.78594 1.72872,2.51355 1.31673,1.88535 3.26305,5.97063 4.09673,8.59896 0.39234,1.23692 0.81009,2.37385 0.92833,2.52649 1.30461,1.68416 1.94117,15.08856 0.93546,19.69851 -0.41029,1.88071 -1.60728,5.89985 -2.20635,7.40833 -0.0867,0.21828 -0.19467,0.58003 -0.23996,0.80389 -0.0453,0.22386 -0.39488,1.0573 -0.77689,1.85209 -1.69866,3.53417 -1.87391,3.69927 -2.65748,2.50339 -0.36991,-0.56455 -0.63243,-0.66086 -1.79203,-0.6574 l -3.43158,0.16522 c -1.04278,0.0478 -5.52737,0.20854 -9.96576,0.35719 -4.43838,0.14865 -9.53353,0.34375 -11.32254,0.43357 l -3.25274,0.1633 0.47462,0.53687 c 2.31126,2.61439 4.79045,3.27353 10.79849,2.87102 2.32552,-0.1558 6.60946,-0.35062 9.51988,-0.43294 2.91042,-0.0823 5.85029,-0.2045 6.53304,-0.27152 2.64404,-0.25956 -1.87325,5.73993 -7.27873,9.66701 -0.70106,0.50932 -1.65391,1.22369 -2.11744,1.5875 -1.19543,0.93823 -1.70693,1.24571 -3.35458,2.01654 -0.80036,0.37444 -1.51474,0.76774 -1.5875,0.874 -0.38281,0.55908 -7.09932,2.88489 -9.92187,3.43577 -0.87313,0.17041 -2.09523,0.42405 -2.71578,0.56364 -1.52333,0.34266 -12.152761,0.33339 -12.365471,-0.0108 z M 74.660951,188.60872 c 3.8563,-0.22016 11.11912,-0.63919 16.139578,-0.93117 5.02047,-0.29198 11.509381,-0.65797 14.419801,-0.8133 2.91041,-0.15533 5.88606,-0.36295 6.61255,-0.46138 l 1.32089,-0.17896 1.39109,-2.22195 c 0.7651,-1.22207 1.3912,-2.29213 1.39133,-2.3779 2.5e-4,-0.16601 -2.84028,-0.14557 -29.608261,0.2131 l -17.040308,0.22832 -0.50582,0.62736 c -0.42337,0.5251 -3.34534,4.89008 -4.00655,5.98517 -0.26614,0.44077 1.12225,0.43104 9.8857,-0.0693 z m 1.90521,-9.67822 c 2.71409,-0.55876 5.17431,-2.00399 7.53499,-4.42635 2.499798,-2.56511 2.220358,-2.54833 4.162058,-0.2499 6.39701,7.57229 19.249721,6.06256 23.635141,-2.77627 7.65377,-15.42621 -11.40004,-29.16714 -23.450381,-16.91158 l -2.22027,2.25808 -0.916878,-1.03964 c -2.89197,-3.27921 -3.94967,-4.06296 -6.97118,-5.16568 -9.21199,-3.36196 -19.30466,3.84585 -19.2852,13.77278 0.0184,9.38942 8.46415,16.40123 17.51172,14.53856 z m -6.40313,-6.16878 c -2.04374,-0.76979 -2.39549,-0.96514 -3.44491,-1.91323 -1.14746,-1.03666 -2.19907,-2.78422 -2.06075,-3.42453 0.0655,-0.30302 0.9252,-0.40027 4.32469,-0.48915 5.37593,-0.14055 6.20806,-0.51233 6.20806,-2.77367 0,-2.06217 -1.54747,-2.66553 -6.84171,-2.66759 l -3.79899,-0.002 0.17708,-0.7276 c 0.71118,-2.92221 4.02194,-5.0991 7.83024,-5.14855 l 2.12233,-0.0276 1.7697,0.90133 c 1.31127,0.66786 2.07997,1.29408 2.9675,2.41747 l 1.19781,1.51613 5.49054,0.005 5.490538,0.005 0.92355,-1.28551 c 3.55735,-4.95157 11.709651,-4.68678 14.517151,0.47152 0.99917,1.8358 0.93678,1.8721 -3.22021,1.8738 -5.857391,0.002 -8.042981,1.33953 -6.489101,3.97005 0.73531,1.24477 1.4482,1.42333 6.020161,1.50787 4.84342,0.0896 4.61728,0.009 3.98406,1.41356 -2.66128,5.90167 -11.140671,6.27877 -14.963811,0.66548 l -0.64038,-0.94024 -5.585218,-0.002 -5.58522,-0.002 -1.02936,1.37755 c -2.25021,3.01132 -6.30363,4.43011 -9.36375,3.27751 z m 48.696179,3.21629 c 3.6094,-6.17009 3.12938,-6.10471 6.31208,-0.85974 l 2.48846,4.10089 h 3.6631 c 2.01471,0 3.6631,-0.0948 3.6631,-0.21061 0,-0.11583 -0.51351,-1.04349 -1.14114,-2.06147 -0.62762,-1.01798 -1.22205,-2.02454 -1.32094,-2.23679 -0.0989,-0.21226 -0.71449,-1.21936 -1.36801,-2.23801 -1.13269,-1.76553 -3.03662,-4.85081 -4.29437,-6.95893 -0.87917,-1.47357 -0.89381,-1.43651 3.36196,-8.51049 4.80158,-7.98124 4.7616,-7.18354 0.35552,-7.09377 l -3.61322,0.0736 -2.27346,3.63802 c -2.54051,4.06535 -2.55341,4.07477 -3.43926,2.5115 -0.34982,-0.61734 -1.36185,-2.27806 -2.24896,-3.69049 l -1.61291,-2.56805 -3.63802,-0.0116 c -2.00091,-0.006 -3.63802,0.0615 -3.63802,0.15099 0,0.0894 0.32421,0.77406 0.72047,1.52136 0.70332,1.32637 1.20752,2.14702 4.49232,7.31184 0.87923,1.38245 1.92566,3.16261 2.32541,3.95591 l 0.72681,1.44236 -0.49307,0.93889 c -0.27118,0.51639 -1.19314,2.06998 -2.0488,3.45243 -3.72439,6.01737 -5.98773,9.91062 -5.98773,10.29972 0,0.18769 1.20274,0.28361 3.55633,0.28361 h 3.55633 z"
       id="path1"
       sodipodi:nodetypes="cssssscsssssscscssssssssssssssccsscssssssssssccsssscssscssssssssscsssscscssccsccsscccsscsccscccsccsscsssssssscsssccsssscsssscs"
       inkscape:export-filename="path1.png"
       inkscape:export-xdpi="96"
       inkscape:export-ydpi="96" /></g></svg>
